<?xml version="1.0" standalone="yes"?>

<svg version="1.1" viewBox="0.0 0.0 160.0 360.0" fill="none" stroke="none" stroke-linecap="square" stroke-miterlimit="10" xmlns="http://www.w3.org/2000/svg" xmlns:xlink="http://www.w3.org/1999/xlink"><clipPath id="p.0"><path d="m0 0l160.0 0l0 360.0l-160.0 0l0 -360.0z" clip-rule="nonzero"></path></clipPath><g clip-path="url(#p.0)"><path fill="#000000" fill-opacity="0.0" d="m0 0l160.43307 0l0 360.0105l-160.43307 0z" fill-rule="nonzero"></path><path fill="#efefef" d="m21.405512 50.645668l18.047243 -38.96063l18.047245 38.96063z" fill-rule="nonzero"></path><path stroke="#000000" stroke-width="2.0" stroke-linejoin="round" stroke-linecap="butt" d="m21.405512 50.645668l18.047243 -38.96063l18.047245 38.96063z" fill-rule="nonzero"></path><path fill="#f9cb9c" d="m21.405512 50.645668l36.09449 0l0 198.07874l-36.09449 0z" fill-rule="nonzero"></path><path stroke="#000000" stroke-width="2.0" stroke-linejoin="round" stroke-linecap="butt" d="m21.405512 50.645668l36.09449 0l0 198.07874l-36.09449 0z" fill-rule="nonzero"></path><path fill="#000000" d="m23.202099 50.61155l32.50394 0l0 7.496063l-32.50394 0z" fill-rule="nonzero"></path><path stroke="#000000" stroke-width="2.0" stroke-linejoin="round" stroke-linecap="butt" d="m23.202099 50.61155l32.50394 0l0 7.496063l-32.50394 0z" fill-rule="nonzero"></path><path fill="#fce5cd" d="m12.192913 288.0958l27.259842 -38.960617l27.259838 38.960617z" fill-rule="nonzero"></path><path stroke="#000000" stroke-width="2.0" stroke-linejoin="round" stroke-linecap="butt" d="m12.192913 288.0958l27.259842 -38.960617l27.259838 38.960617z" fill-rule="nonzero"></path><path fill="#980000" d="m15.782152 291.15747l13.385826 0l0 62.80316l-13.385826 0z" fill-rule="nonzero"></path><path fill="#980000" d="m32.761154 291.15747l13.385826 0l0 62.80316l-13.385826 0z" fill-rule="nonzero"></path><path fill="#980000" d="m49.740158 291.15747l13.385826 0l0 62.80316l-13.385826 0z" fill-rule="nonzero"></path><path fill="#000000" fill-opacity="0.0" d="m23.202099 59.787403l32.50394 0l0 187.68504l-32.50394 0z" fill-rule="nonzero"></path><path stroke="#e06666" stroke-width="2.0" stroke-linejoin="round" stroke-linecap="butt" stroke-dasharray="8.0,6.0" d="m23.202099 59.787403l32.50394 0l0 187.68504l-32.50394 0z" fill-rule="nonzero"></path><path fill="#000000" fill-opacity="0.0" d="m109.07218 153.0l-42.362206 1.2598419" fill-rule="nonzero"></path><path stroke="#e06666" stroke-width="2.0" stroke-linejoin="round" stroke-linecap="butt" stroke-dasharray="8.0,6.0" d="m109.07218 153.0l-35.511063 1.0560913" fill-rule="evenodd"></path><path fill="#e06666" stroke="#e06666" stroke-width="2.0" stroke-linecap="butt" d="m73.56112 154.05609l2.1813126 -2.315033l-6.109947 2.4318695l6.2436676 2.0644836z" fill-rule="evenodd"></path><path fill="#000000" fill-opacity="0.0" d="m109.07218 136.44882l61.984245 0l0 34.362198l-61.984245 0z" fill-rule="nonzero"></path><path fill="#e06666" d="m122.43156 151.35179q1.359375 0 2.125 0.9375q0.765625 0.9375 0.765625 2.65625q0 1.71875 -0.765625 2.671875q-0.765625 0.9375 -2.125 0.9375q-0.6875 0 -1.25 -0.25q-0.5625 -0.25 -0.9375 -0.765625l-0.078125 0l-0.21875 0.890625l-0.75 0l0 -9.875l1.046875 0l0 2.390625q0 0.8125 -0.046875 1.453125l0.046875 0q0.734375 -1.046875 2.1875 -1.046875zm-0.15625 0.890625q-1.078125 0 -1.5625 0.625q-0.46875 0.609375 -0.46875 2.078125q0 1.46875 0.484375 2.109375q0.5 0.625 1.578125 0.625q0.96875 0 1.4375 -0.703125q0.484375 -0.71875 0.484375 -2.046875q0 -1.359375 -0.484375 -2.015625q-0.46875 -0.671875 -1.46875 -0.671875zm11.089256 2.703125q0 1.703125 -0.859375 2.65625q-0.859375 0.953125 -2.375 0.953125q-0.921875 0 -1.65625 -0.4375q-0.7187424 -0.4375 -1.1093674 -1.25q-0.390625 -0.828125 -0.390625 -1.921875q0 -1.703125 0.84375 -2.640625q0.8593674 -0.953125 2.3593674 -0.953125q1.46875 0 2.328125 0.96875q0.859375 0.96875 0.859375 2.625zm-5.296875 0q0 1.328125 0.53125 2.03125q0.53125 0.703125 1.5625 0.703125q1.03125 0 1.5625 -0.6875q0.546875 -0.703125 0.546875 -2.046875q0 -1.328125 -0.546875 -2.015625q-0.53125 -0.6875 -1.578125 -0.6875q-1.03125 0 -1.5625 0.6875q-0.515625 0.671875 -0.515625 2.015625zm12.081497 2.546875l-0.0625 0q-0.734375 1.0625 -2.1875 1.0625q-1.359375 0 -2.125 -0.921875q-0.75 -0.9375 -0.75 -2.65625q0 -1.734375 0.75 -2.671875q0.765625 -0.953125 2.125 -0.953125q1.421875 0 2.171875 1.015625l0.078125 0l-0.03125 -0.5l-0.03125 -0.484375l0 -2.828125l1.046875 0l0 9.875l-0.84375 0l-0.140625 -0.9375zm-2.109375 0.1875q1.078125 0 1.5625 -0.59375q0.484375 -0.59375 0.484375 -1.890625l0 -0.21875q0 -1.484375 -0.5 -2.109375q-0.484375 -0.640625 -1.5625 -0.640625q-0.921875 0 -1.421875 0.71875q-0.484375 0.71875 -0.484375 2.03125q0 1.34375 0.484375 2.03125q0.484375 0.671875 1.4375 0.671875zm4.433014 -6.203125l1.125 0l1.53125 3.96875q0.5 1.359375 0.609375 1.953125l0.0625 0q0.078125 -0.328125 0.34375 -1.109375q0.265625 -0.78125 1.71875 -4.8125l1.125 0l-2.984375 7.921875q-0.4375 1.171875 -1.03125 1.65625q-0.59375 0.5 -1.46875 0.5q-0.46875 0 -0.9375 -0.109375l0 -0.84375q0.34375 0.078125 0.765625 0.078125q1.09375 0 1.5625 -1.21875l0.375 -1.0l-2.796875 -6.984375z" fill-rule="nonzero"></path></g></svg>

