<?xml version="1.0" standalone="yes"?>

<svg version="1.1" viewBox="0.0 0.0 100.0 379.0" fill="none" stroke="none" stroke-linecap="square" stroke-miterlimit="10" xmlns="http://www.w3.org/2000/svg" xmlns:xlink="http://www.w3.org/1999/xlink"><clipPath id="p.0"><path d="m0 0l100.0 0l0 379.0l-100.0 0l0 -379.0z" clip-rule="nonzero"></path></clipPath><g clip-path="url(#p.0)"><path fill="#000000" fill-opacity="0.0" d="m0 0l100.0 0l0 379.47507l-100.0 0z" fill-rule="nonzero"></path><path fill="#efefef" d="m31.951443 61.923885l18.047245 -38.960632l18.047241 38.960632z" fill-rule="nonzero"></path><path stroke="#000000" stroke-width="2.0" stroke-linejoin="round" stroke-linecap="butt" d="m31.951443 61.923885l18.047245 -38.960632l18.047241 38.960632z" fill-rule="nonzero"></path><path fill="#f9cb9c" d="m31.951443 61.923885l36.094486 0l0 198.07874l-36.094486 0z" fill-rule="nonzero"></path><path stroke="#000000" stroke-width="2.0" stroke-linejoin="round" stroke-linecap="butt" d="m31.951443 61.923885l36.094486 0l0 198.07874l-36.094486 0z" fill-rule="nonzero"></path><path fill="#000000" d="m33.74803 61.889763l32.503937 0l0 7.496063l-32.503937 0z" fill-rule="nonzero"></path><path stroke="#000000" stroke-width="2.0" stroke-linejoin="round" stroke-linecap="butt" d="m33.74803 61.889763l32.503937 0l0 7.496063l-32.503937 0z" fill-rule="nonzero"></path><path fill="#fce5cd" d="m22.738846 299.37402l27.259842 -38.960632l27.259842 38.960632z" fill-rule="nonzero"></path><path stroke="#000000" stroke-width="2.0" stroke-linejoin="round" stroke-linecap="butt" d="m22.738846 299.37402l27.259842 -38.960632l27.259842 38.960632z" fill-rule="nonzero"></path><path fill="#980000" d="m26.328083 302.4357l13.385826 0l0 62.80313l-13.385826 0z" fill-rule="nonzero"></path><path fill="#980000" d="m43.307087 302.4357l13.385826 0l0 62.80313l-13.385826 0z" fill-rule="nonzero"></path><path fill="#980000" d="m60.28609 302.4357l13.385822 0l0 62.80313l-13.385822 0z" fill-rule="nonzero"></path></g></svg>

